<?xml version="1.0" encoding="UTF-8"?>
<svg width="110px" height="25px" viewBox="0 0 110 25" version="1.1" xmlns="http://www.w3.org/2000/svg" xmlns:xlink="http://www.w3.org/1999/xlink">
    <title>deepmind-logo</title>
    <g id="Current-Version" stroke="none" stroke-width="1" fill="none" fill-rule="evenodd">
        <g id="Group-7-Copy" transform="translate(-664.000000, 0.000000)" fill="#11181C">
            <g id="deepmind-logo" transform="translate(664.000000, 0.000000)">
                <path d="M4.555188,8.72083098 C4.2067432,4.41251535 7.457428,0 12.892176,0 C14.693844,0 16.589012,0.449998793 18.182472,1.19166626 C22.503976,3.19166713 25.495404,7.5041473 25.495404,12.5 C25.495404,17.1166468 22.941644,21.1499993 19.134324,23.3124991 C20.970004,21.5458462 22.057772,19.012504 21.828312,16.2041556 C21.458668,11.6125133 17.043708,7.87498965 13.036672,7.87498965 C9.310092,7.87498965 7.852592,11.0625009 8.213788,13.2291825 C8.349748,14.0416557 8.706676,14.7833405 9.225084,15.3875005 C8.553732,15.0333422 7.903588,14.5791659 7.30444,14.0333353 C5.689728,12.5583294 4.7124,10.6708358 4.555188,8.72083098 Z M20.940216,16.279169 C21.288696,20.5874847 18.03802,25 12.603228,25 C10.80156,25 8.906392,24.5500055 7.312932,23.8083208 C2.9914632,21.8083501 0,17.4958527 0,12.5 C0,7.88335322 2.5537908,3.85000069 6.361124,1.68750086 C4.525444,3.45416678 3.437632,5.98749603 3.667092,8.79584443 C4.0367756,13.3874867 8.45174,17.1250103 12.458776,17.1250103 C16.185356,17.1250103 17.642812,13.9374991 17.28166,11.7708175 C17.145656,10.9583443 16.788728,10.2166595 16.27032,9.61249948 C16.941716,9.96665781 17.59186,10.4208341 18.190964,10.9666647 C19.805676,12.4416706 20.783004,14.3291642 20.940216,16.279169 Z M31.869288,6.25 L35.931544,6.25 C40.410216,6.25 42.466864,8.66250155 42.466864,12.516684 C42.466864,16.3541825 40.410216,18.75 35.931544,18.75 L31.869288,18.75 L31.869288,6.25 Z M35.87628,17.2499897 C39.407412,17.2499897 40.631184,15.462514 40.631184,12.516684 C40.631184,9.55417006 39.41168,7.72918765 35.87628,7.72918765 L33.670956,7.72918765 L33.670956,17.2499897 L35.87628,17.2499897 Z M45.0802,14.7333315 L52.16376,14.7333315 C52.18048,14.4083163 52.18048,14.1416737 52.18048,13.891672 C52.18048,11.6083315 50.50628,9.67914936 47.84648,9.67914936 C45.15236,9.67914936 43.312456,11.5541839 43.312456,14.3583505 C43.312456,17.1291921 45.16952,18.9666768 47.82932,18.9666768 C49.95848,18.9666768 51.43292,17.7166682 51.92572,16.0541718 L50.12392,16.0541718 C49.75872,16.9291563 48.95968,17.4999914 47.82932,17.4999914 C46.42704,17.4999914 45.19064,16.5374912 45.0802,14.7333315 Z M47.82932,11.1458348 C49.24876,11.1458348 50.32368,12.0375033 50.39584,13.4833229 L45.11408,13.4833229 C45.31824,11.9499876 46.48248,11.1458348 47.82932,11.1458348 Z M61.97928,14.7333315 L54.89572,14.7333315 C55.00616,16.5374912 56.243,17.4999914 57.64528,17.4999914 C58.77564,17.4999914 59.57424,16.9291563 59.93988,16.0541718 L61.74124,16.0541718 C61.24844,17.7166682 59.774,18.9666768 57.64528,18.9666768 C54.98504,18.9666768 53.12824,17.1291921 53.12824,14.3583505 C53.12824,11.5541839 54.96832,9.67914936 57.662,9.67914936 C60.32224,9.67914936 61.99644,11.6083315 61.99644,13.891672 C61.99644,14.1416737 61.99644,14.4083163 61.97928,14.7333315 Z M60.2118,13.4833229 C60.13964,12.0375033 59.06428,11.1458348 57.64528,11.1458348 C56.298,11.1458348 55.13376,11.9499876 54.93004,13.4833229 L60.2118,13.4833229 Z M64.69056,9.89168747 L63.07136,9.89168747 L63.07136,22.6791494 L64.87316,22.6791494 L64.87316,17.358328 C65.49356,18.3791576 66.61952,18.9666768 68.06008,18.9666768 C70.71592,18.9666768 72.53884,17.0208537 72.53884,14.3416664 C72.53884,11.6625222 70.71592,9.67914936 68.0768,9.67914936 C66.45804,9.67914936 65.43812,10.4458386 64.87316,11.3041821 L64.69056,9.89168747 Z M67.78816,11.2124847 C69.50064,11.2124847 70.70316,12.4833591 70.70316,14.3208437 C70.70316,16.1791511 69.50064,17.4291597 67.78816,17.4291597 C66.0924,17.4291597 64.87316,16.1791511 64.87316,14.3208437 C64.87316,12.4791773 66.0924,11.2124847 67.78816,11.2124847 Z M86.59508,18.75 L84.79372,18.75 L84.79372,9.33749327 L80.78664,16.9625243 L79.40108,16.9625243 L75.37728,9.33749327 L75.37728,18.75 L73.57548,18.75 L73.57548,6.25 L75.68748,6.25 L80.09364,14.6958248 L84.48352,6.25 L86.59508,6.25 L86.59508,18.75 Z M88.88968,5.89165988 C88.21428,5.89165988 87.70432,6.35833839 87.70432,7.00000517 C87.70432,7.64167195 88.21428,8.12499138 88.88968,8.12499138 C89.58224,8.12499138 90.0922,7.64167195 90.0922,7.00000517 C90.0922,6.35415661 89.58224,5.89165988 88.88968,5.89165988 Z M89.79916,9.89164436 L87.99736,9.89164436 L87.99736,18.75 L89.79916,18.75 L89.79916,9.89164436 Z M99.54252,13.6416702 L99.54252,18.75 L97.75788,18.75 L97.75788,13.8208403 C97.75788,12.0708282 97.00988,11.1958437 95.5526,11.1958437 C94.07816,11.1958437 93.00324,12.2499983 93.00324,14.1791804 L93.00324,18.75 L91.20144,18.75 L91.20144,9.89168747 L92.80348,9.89168747 L92.93064,11.4458455 C93.51276,10.3583229 94.64312,9.67914936 96.0454,9.67914936 C98.2124,9.67914936 99.54252,10.9833487 99.54252,13.6416702 Z M104.99456,9.63750397 C102.33432,9.63750397 100.53252,11.583327 100.53252,14.2624712 C100.53252,16.9416585 102.33872,18.9249883 104.973,18.9249883 C106.59616,18.9249883 107.61608,18.1583422 108.1982,17.2999986 L108.38124,18.7124933 L110,18.7124933 L110,5.85415316 L108.1982,5.85415316 L108.1982,11.2458096 C107.5822,10.22498 106.45184,9.63750397 104.99456,9.63750397 Z M105.26648,11.1749779 C106.97896,11.1749779 108.18148,12.4249865 108.18148,14.283337 C108.18148,16.1208217 106.97896,17.3875143 105.26648,17.391653 C103.57072,17.391653 102.35148,16.1208217 102.35148,14.283337 C102.35148,12.4249865 103.57072,11.1749779 105.26648,11.1749779 Z" id="Shape"></path>
            </g>
        </g>
    </g>
</svg>